<svg width="1520" height="300" viewBox="0 0 1520 300" xmlns="http://www.w3.org/2000/svg">
  <defs>
    <linearGradient id="bg" x1="0" y1="0" x2="280" y2="280" gradientUnits="userSpaceOnUse">
      <stop offset="0" stop-color="#3b82f6"/>
      <stop offset="1" stop-color="#1e40af"/>
    </linearGradient>
  </defs>

  <!-- Icon (scaled mark) -->
  <g transform="translate(30,26) scale(0.484375)">
    <rect width="512" height="512" rx="116" fill="url(#bg)"/>
    <g fill="none" stroke="#ffffff" stroke-linecap="round" stroke-linejoin="round">
      <rect x="226" y="58" width="60" height="42" rx="14" fill="#ffffff" stroke="none"/>
      <rect x="245" y="96" width="22" height="40" rx="8" fill="#ffffff" stroke="none"/>
      <rect x="150" y="120" width="44" height="20" rx="10" fill="#ffffff" stroke="none" transform="rotate(-40 172 130)"/>
      <rect x="318" y="120" width="44" height="20" rx="10" fill="#ffffff" stroke="none" transform="rotate(40 340 130)"/>
      <circle cx="256" cy="280" r="150" stroke-width="24"/>
      <polygon points="256,234 299.7,265.8 283,317.2 229,317.2 212.3,265.8" fill="#ffffff" stroke="none"/>
      <g stroke-width="14">
        <line x1="256" y1="234" x2="256" y2="160"/>
        <line x1="299.7" y1="265.8" x2="370.1" y2="242.9"/>
        <line x1="283" y1="317.2" x2="326.6" y2="377.1"/>
        <line x1="229" y1="317.2" x2="185.4" y2="377.1"/>
        <line x1="212.3" y1="265.8" x2="141.9" y2="242.9"/>
      </g>
    </g>
  </g>

  <!-- Wordmark -->
  <text x="296" y="160" font-family="'Plus Jakarta Sans','Inter','Helvetica Neue',Arial,sans-serif"
        font-size="92" font-weight="800" letter-spacing="-3">
    <tspan fill="#0f172a">Match</tspan><tspan fill="#2563eb">Time</tspan>
  </text>
  <text x="298" y="208" font-family="'Inter','Helvetica Neue',Arial,sans-serif"
        font-size="26" font-weight="600" letter-spacing="6" fill="#64748b">SPORTS MANAGEMENT</text>
</svg>
